<svg width="27" height="24" viewBox="0 0 27 24" fill="none" xmlns="http://www.w3.org/2000/svg">
<path d="M16.037 10.2076C16.4913 10.662 16.8007 11.2409 16.9261 11.8711C17.0514 12.5014 16.9871 13.1546 16.7411 13.7483C16.4952 14.3419 16.0788 14.8493 15.5445 15.2063C15.0102 15.5633 14.3821 15.7539 13.7395 15.7539C13.0969 15.7539 12.4688 15.5633 11.9345 15.2063C11.4002 14.8493 10.9838 14.3419 10.7378 13.7483C10.4919 13.1546 10.4275 12.5014 10.5529 11.8711C10.6782 11.2409 10.9876 10.662 11.442 10.2076C11.7437 9.90585 12.1019 9.6665 12.4961 9.5032C12.8903 9.33991 13.3128 9.25586 13.7395 9.25586C14.1662 9.25586 14.5887 9.33991 14.9829 9.5032C15.3771 9.6665 15.7353 9.90585 16.037 10.2076Z" fill="#8C877F"/>
<path d="M23.487 3.56931H21.244L19.619 0.320312H7.86202L6.23802 3.57131H3.99602C3.13551 3.57448 2.31127 3.91827 1.70355 4.5275C1.09583 5.13672 0.75407 5.9618 0.753019 6.82231L0.744019 19.8143C0.744812 20.6758 1.08734 21.5019 1.69644 22.1112C2.30555 22.7205 3.13148 23.0633 3.99302 23.0643H23.487C24.3485 23.0635 25.1744 22.721 25.7835 22.1118C26.3927 21.5027 26.7352 20.6768 26.736 19.8153V6.81531C26.7352 5.95387 26.3927 5.12793 25.7835 4.5188C25.1744 3.90967 24.3485 3.56711 23.487 3.56631V3.56931ZM13.744 18.9983C12.4584 18.9983 11.2017 18.6171 10.1328 17.9029C9.06389 17.1886 8.23077 16.1735 7.7388 14.9858C7.24683 13.798 7.11811 12.4911 7.36891 11.2302C7.61972 9.96935 8.23878 8.81116 9.14782 7.90212C10.0569 6.99308 11.2151 6.37401 12.4759 6.12321C13.7368 5.8724 15.0437 6.00113 16.2315 6.4931C17.4192 6.98506 18.4343 7.81819 19.1486 8.88711C19.8628 9.95603 20.244 11.2127 20.244 12.4983C20.2424 14.2217 19.5571 15.8741 18.3385 17.0928C17.1198 18.3114 15.4674 18.9967 13.744 18.9983Z" fill="#8C877F"/>
</svg>
