<svg width="31" height="22" viewBox="0 0 31 22" fill="none" xmlns="http://www.w3.org/2000/svg">
<path d="M29.41 0.015625H1.68099C1.45211 0.015625 1.2326 0.106551 1.07076 0.268394C0.908916 0.430238 0.817993 0.649742 0.817993 0.878624L0.817993 20.4386C0.817993 20.6675 0.908916 20.887 1.07076 21.0489C1.2326 21.2107 1.45211 21.3016 1.68099 21.3016H29.41C29.6389 21.3016 29.8584 21.2107 30.0202 21.0489C30.1821 20.887 30.273 20.6675 30.273 20.4386V0.878624C30.273 0.649742 30.1821 0.430238 30.0202 0.268394C29.8584 0.106551 29.6389 0.015625 29.41 0.015625ZM18.591 4.72962C18.7487 4.11234 19.0914 3.55806 19.5731 3.14113C20.0548 2.7242 20.6526 2.46459 21.2861 2.39711C21.9196 2.32963 22.5586 2.45753 23.1173 2.76363C23.6761 3.06974 24.1278 3.53941 24.412 4.10963C24.4727 4.10563 24.534 4.10362 24.596 4.10362C24.9701 4.09657 25.3418 4.16416 25.6894 4.30244C26.0371 4.44071 26.3537 4.6469 26.6207 4.90895C26.8877 5.171 27.0999 5.48365 27.2447 5.82863C27.3895 6.17361 27.464 6.54399 27.464 6.91812C27.464 7.29226 27.3895 7.66264 27.2447 8.00762C27.0999 8.3526 26.8877 8.66525 26.6207 8.9273C26.3537 9.18935 26.0371 9.39554 25.6894 9.53381C25.3418 9.67209 24.9701 9.73968 24.596 9.73263H18.844C18.2057 9.72539 17.5942 9.47506 17.1341 9.03265C16.674 8.59023 16.3999 7.98903 16.3676 7.35153C16.3354 6.71404 16.5474 6.08822 16.9605 5.60162C17.3736 5.11502 17.9567 4.80425 18.591 4.73263V4.72962ZM2.54399 19.5756V11.3266C5.32099 10.9386 10.764 10.4046 13.428 11.2886C13.628 11.3556 13.818 11.4346 14.012 11.5166C19.796 13.9526 19.212 17.0166 28.53 17.2816H28.547V19.5756H2.54399Z" fill="#8C877F"/>
</svg>
